<svg width="115.00000000000001" height="60.00000000000001" xmlns="http://www.w3.org/2000/svg">
 <g>
  <title>Layer 1</title>
  <path fill="#fff" stroke="#000" opacity="NaN" d="m199.33333,94" id="svg_11"/>
  <path fill="#fff" stroke="#000" opacity="NaN" d="m-66,261.33333" id="svg_12"/>
  <path stroke="#000" fill="url(#svg_36)" opacity="NaN" d="m29.65077,3.00416c-14.15191,-0.12058 -27.47215,11.28631 -27.3905,27.11882c0.08164,15.83251 13.73741,26.95356 26.79028,26.59685c13.05286,-0.35672 17.73172,-6.65786 20.61309,-9.46638c2.88138,-2.80853 4.46208,-3.13834 5.94396,-3.14462c1.48187,-0.00628 2.78776,0.38078 5.68977,3.14634c2.902,2.76556 9.34098,9.10669 21.52717,9.80003c12.18619,0.69334 27.24748,-10.37623 27.22236,-26.14216c-0.02512,-15.76593 -11.56193,-27.56078 -26.66468,-27.78059c-15.10274,-0.21981 -39.57954,-0.0077 -53.73145,-0.12828z" id="svg_16" stroke-width="3"/>
 </g>
 <defs>
  <linearGradient id="svg_36" x1="0" y1="1" x2="1" y2="0.18439" spreadMethod="pad">
   <stop stop-color="#0273d6" stop-opacity="0.99609" offset="0"/>
   <stop stop-color="#54d9ff" stop-opacity="0.98828" offset="1"/>
  </linearGradient>
 </defs>
</svg>